# xmcd
#
# Track frame offsets:
#	150
#	9899
#	22641
#	33892
#	49390
#	60678
#	71837
#	83854
#	95011
#	107844
#	117330
#	129836
#	142454
#	161837
#	173593
#	183400
#	195629
#	210048
#	222659
#	234673
#
# Disc length: 3292 seconds
#
# Revision: 1
# Processed by: cddbd v1.5.2PL0 Copyright (c) Steve Scherf et al.
# Submitted via: audiograbber 1.83.01
#
DISCID=180cda14
DTITLE=Dinah Washington - 20 Outstanding Performances
DYEAR=2002
DGENRE=
TTITLE0=September in rain
TTITLE1=Mad about the boy
TTITLE2=Ev'ry time we say goodbye
TTITLE3=Smoke gets in your eyes
TTITLE4=What a difference a day made
TTITLE5=Cry me a river
TTITLE6=Since I fell for you
TTITLE7=This bitter earth
TTITLE8=Trouble in mind
TTITLE9=Love letters
TTITLE10=Teach me tonight
TTITLE11=They didn't believe me
TTITLE12=Manhatten
TTITLE13=Stormy weather
TTITLE14=Love walked in
TTITLE15=Dream
TTITLE16=I don't hurt anymore
TTITLE17=Tears to burn
TTITLE18=Blue skies
TTITLE19=Unforgettable
EXTD=
EXTT0=
EXTT1=
EXTT2=
EXTT3=
EXTT4=
EXTT5=
EXTT6=
EXTT7=
EXTT8=
EXTT9=
EXTT10=
EXTT11=
EXTT12=
EXTT13=
EXTT14=
EXTT15=
EXTT16=
EXTT17=
EXTT18=
EXTT19=
PLAYORDER=
